<?xml version="1.0" encoding="utf-8"?>
<!-- Generator: Adobe Illustrator 23.0.5, SVG Export Plug-In . SVG Version: 6.00 Build 0)  -->
<svg version="1.1" id="Слой_1" xmlns="http://www.w3.org/2000/svg" xmlns:xlink="http://www.w3.org/1999/xlink" x="0px" y="0px"
	 viewBox="0 0 32 32" style="enable-background:new 0 0 32 32;" xml:space="preserve">
<style type="text/css">
	.st0{fill:#FFFFFF;}
</style>
<title></title>
<g id="bell">
	<path class="st0" d="M29.8,24.4l-3.6-4.5L26,12c0-0.1,0-0.1,0-0.2C24.9,5.6,21.2,2,16,2c-5.5,0-9.9,4-11,9.8c0,0.1,0,0.1,0,0.2
		l-0.1,8l-2.7,4.5c-0.2,0.3-0.2,0.7,0,1C2.3,25.8,2.6,26,3,26h9c0,2.2,1.8,4,4,4s4-1.8,4-4h9c0.4,0,0.7-0.2,0.9-0.6
		C30.1,25.1,30,24.7,29.8,24.4z M16,28c-1.1,0-2-0.9-2-2h4C18,27.1,17.1,28,16,28z M4.8,24l2-3.2c0.1-0.2,0.1-0.3,0.1-0.5L7,12.1
		C7.9,7.3,11.5,4,16,4c5.6,0,7.4,5,8,8.1l0.1,8.2c0,0.2,0.1,0.4,0.2,0.6l2.5,3.1H4.8z"/>
</g>
</svg>
